<svg width="24" height="24" viewBox="0 0 24 24" fill="none" xmlns="http://www.w3.org/2000/svg">
<rect width="24" height="24" fill="#E5E5E5"/>
<g id="regions">
<g clip-path="url(#clip0_0_1)">
<rect x="-40" y="-46" width="360" height="800" rx="40" fill="#F0F5F5"/>
<g id="Frame 24">
<g clip-path="url(#clip1_0_1)">
<rect x="-40" y="-46" width="360" height="190" rx="36" fill="#185BFF"/>
<g id="Frame" opacity="0.5" clip-path="url(#clip2_0_1)">
<path id="Vector" d="M86.7235 197.387L86.8612 197.621C86.9076 197.594 86.9541 197.566 87.0005 197.539C93.3103 193.844 99.6948 190.013 105.809 186.032L105.662 185.796M86.7235 197.387C86.77 197.36 86.8165 197.333 86.863 197.306C86.8633 197.306 86.8635 197.305 86.8637 197.305C93.1727 193.61 99.5538 189.777 105.662 185.796M86.7235 197.387C70.3313 207.048 57.2638 213.892 44.4614 219.617C44.4609 219.617 44.4603 219.618 44.4598 219.618C44.4022 219.644 44.3445 219.669 44.2869 219.695L86.8606 197.621L86.7235 197.387ZM105.662 185.796L105.814 186.029C105.856 186.002 105.897 185.975 105.939 185.947C114.088 180.894 122.614 175.152 129.231 168.005C129.248 167.986 129.266 167.967 129.283 167.949C131.491 165.558 133.787 162.676 134.561 158.96M105.662 185.796C105.704 185.77 105.747 185.743 105.789 185.717C105.791 185.716 105.792 185.715 105.794 185.714C113.925 180.667 122.418 174.931 129.006 167.797C129.023 167.778 129.04 167.76 129.058 167.741C131.231 165.381 133.479 162.543 134.264 158.9L134.561 158.96M134.561 158.96C134.567 158.93 134.573 158.9 134.579 158.87C134.579 158.869 134.579 158.869 134.579 158.868C135.487 154.187 133.577 148.507 129.478 143.583L134.265 158.898L134.561 158.96ZM105.261 126.014C105.985 126.5 106.727 126.951 107.47 127.403C108.123 127.8 108.777 128.196 109.417 128.617L-48.1064 39.941C-47.2902 40.4175 -46.4944 40.8679 -45.7177 41.2938C-41.9134 43.3708 -38.6152 44.8267 -35.402 45.9923M105.261 126.014C105.172 125.958 105.083 125.902 104.995 125.846C104.994 125.846 104.994 125.846 104.994 125.846C103.53 124.926 102.07 124.001 100.614 123.072M105.261 126.014L105.246 126.036L109.402 128.64C108.679 128.154 107.936 127.702 107.193 127.251C106.54 126.854 105.887 126.457 105.247 126.037L105.261 126.014ZM100.614 123.072C76.3871 107.498 53.0578 90.7564 31.0582 73.1711M100.614 123.072C76.3315 107.581 53.069 90.8758 31.0582 73.1711M100.614 123.072C102.067 124.006 103.524 124.936 104.984 125.862L17.3771 61.9825L17.4168 61.9355M31.0582 73.1711C26.4557 69.4689 21.9078 65.7231 17.4168 61.9355M31.0582 73.1711C26.4381 69.478 21.8766 65.7476 17.3777 61.9831L17.4168 61.9355M17.4168 61.9355C17.3369 61.8698 17.2571 61.8043 17.1776 61.7388C17.1774 61.7387 17.1773 61.7386 17.1771 61.7385C16.7389 61.378 16.3055 61.0205 15.8762 60.6662C11.9025 57.3873 8.2745 54.3937 4.28904 52.0535C4.19915 51.9982 4.10938 51.9433 4.01971 51.8889C4.01969 51.8889 4.01967 51.8889 4.01965 51.8889C1.46859 50.3418 -0.996278 49.1835 -3.37496 48.4139M-3.37496 48.4139C-5.77013 47.5846 -8.08491 47.1176 -10.3617 47.0523L-10.3698 47.2721M-3.37496 48.4139C-5.79585 47.6307 -8.12746 47.2501 -10.3698 47.2721M-3.37496 48.4139C-1.005 49.2345 1.44365 50.4099 4.01206 51.902L-21.71 48.2653M-10.3698 47.2721L-10.372 47.052C-10.5099 47.0481 -10.6476 47.0457 -10.7853 47.0448C-12.9073 47.0306 -14.8626 47.2568 -16.6984 47.5617L-16.6827 47.9569M-10.3698 47.2721C-10.5084 47.267 -10.6474 47.264 -10.7867 47.2629C-12.6685 47.2484 -14.6042 47.5901 -16.384 47.9042C-16.4841 47.9219 -16.5837 47.9395 -16.6827 47.9569M-16.6827 47.9569L-16.7507 47.5704C-16.9136 47.5976 -17.0756 47.6255 -17.2367 47.6538C-18.751 47.8716 -20.2653 48.0894 -21.7106 48.1812C-21.7117 48.1812 -21.7128 48.1813 -21.7139 48.1814C-21.7589 48.1842 -21.8037 48.1869 -21.8485 48.1895M-16.6827 47.9569C-16.8504 47.9635 -17.0159 47.9715 -17.1792 47.9804C-17.1827 47.9806 -17.1861 47.9808 -17.1896 47.981C-17.8154 48.0153 -18.4113 48.064 -18.9917 48.1114C-19.9176 48.187 -20.8041 48.2595 -21.71 48.2653M-21.8485 48.1895C-25.9155 48.4587 -30.3641 47.8134 -35.2553 46.0457C-35.2554 46.0456 -35.2555 46.0456 -35.2555 46.0456C-35.3043 46.028 -35.3532 46.0102 -35.402 45.9923M-21.8485 48.1895L-21.8438 48.2712L-21.71 48.2653M-21.8485 48.1895L-21.8431 48.2712C-21.7988 48.2693 -21.7544 48.2674 -21.71 48.2653M-35.402 45.9923L-35.4105 46.0156L-35.2635 46.0681C-35.3125 46.0507 -35.3614 46.0332 -35.4105 46.0156L-35.402 45.9923ZM112.751 130.742C111.716 130.085 110.68 129.429 109.679 128.791L115.546 132.541L115.557 132.523C114.639 131.939 113.695 131.34 112.751 130.742ZM123.428 137.881C120.956 136.017 118.295 134.219 115.823 132.692L129.29 143.357C127.718 141.485 125.989 139.853 123.677 138.07C123.595 138.007 123.512 137.944 123.429 137.882C123.429 137.882 123.429 137.881 123.428 137.881Z" fill="white" stroke="white"/>
<path id="Vector_2" d="M18.477 236.434C18.4767 236.434 18.4764 236.434 18.4762 236.434L18.4504 236.33L18.477 236.434ZM98.4419 199.404L98.5134 199.519L98.4442 199.402C98.4435 199.403 98.4427 199.403 98.4419 199.404ZM-17.0867 240.17L-17.0833 240.101L-17.0867 240.17ZM119.344 186.443L119.418 186.56C119.418 186.56 119.419 186.56 119.419 186.56L119.344 186.443Z" fill="white" stroke="white"/>
<path id="Vector_3" d="M-142.941 168.54C-145.92 163.131 -146.806 156.528 -145.714 149.928C-144.546 143.189 -141.502 137.297 -138.471 131.757C-135.44 126.218 -132.056 120.691 -129.266 115.92C-126.627 111.425 -123.925 107.145 -121.224 102.865C-105.063 76.6177 -89.9501 51.9562 -86.7499 22.7563C-86.648 21.9123 -86.6219 21.2068 -86.52 20.3628C-85.8956 14.9461 -85.4098 9.45363 -82.5565 4.89655C-76.1811 -5.11125 -65.264 -0.397706 -56.4896 4.94299C-47.5009 10.221 -35.8547 16.2331 -24.3133 15.53C-22.398 15.3183 -20.4827 15.1066 -18.4916 14.7564C-15.9335 14.3566 -13.2997 13.8183 -10.4777 13.9227C2.72563 14.1288 14.4921 24.5256 24.1445 32.8659C57.4683 62.0755 93.6297 89.0587 131.798 113.361C134.97 115.457 138.08 117.338 141.327 119.295L145.054 121.693C148.025 123.499 151.612 125.822 154.91 128.346C157.792 130.643 160.183 132.851 162.36 135.121C167.782 141.327 170.267 148.625 169.062 154.444C168.187 159.003 165.083 162.704 162.433 165.573C154.347 174.104 144.347 180.869 133.856 187.546C125.9 192.55 118.157 197.491 110.718 201.878C90.6329 213.922 74.7724 222.519 59.1784 229.642C41.1387 237.947 13.6845 248.658 -16.4247 247.119C-22.2072 246.835 -29.5261 246.069 -36.0351 242.508C-43.8663 238.403 -49.1107 231.215 -54.3681 224.38C-56.1162 221.984 -58.0029 219.512 -59.8268 217.254C-70.0411 205.008 -84.3786 195.363 -99.176 190.506C-102.664 189.317 -106.166 188.481 -109.667 187.645C-113.66 186.72 -117.715 185.581 -121.695 184.304C-129.717 181.534 -136.061 177.343 -140.035 172.109C-140.438 171.529 -140.84 170.949 -141.243 170.369C-142.212 169.839 -142.614 169.259 -142.941 168.54ZM-24.0755 16.7398C-35.9697 17.4299 -47.9685 11.4047 -57.02 5.91242C-66.0087 0.634432 -75.7421 -3.61141 -81.5871 5.42696C-84.2888 9.70706 -84.8374 14.9853 -85.3102 20.125C-85.4121 20.969 -85.514 21.8129 -85.5401 22.5185C-88.6776 51.9327 -104.08 76.7954 -120.241 103.043C-122.943 107.323 -125.582 111.817 -128.283 116.097C-131.074 120.869 -134.458 126.395 -137.489 131.935C-140.444 137.336 -143.488 143.228 -144.58 149.829C-145.761 156.92 -144.334 164.179 -140.864 169.677C-140.461 170.257 -140.059 170.837 -139.656 171.417C-135.745 176.436 -129.677 180.476 -121.794 183.17C-117.89 184.586 -113.759 185.586 -109.766 186.511C-106.265 187.347 -102.764 188.183 -99.2753 189.372C-84.2637 194.167 -69.725 204.101 -59.3721 216.423C-57.4097 218.757 -55.6616 221.153 -53.775 223.625C-48.656 230.384 -43.3359 237.434 -35.8575 241.526C-29.4112 244.873 -22.3065 245.701 -16.7383 246.048C13.1567 247.649 40.3966 237.001 58.4363 228.696C74.0303 221.573 89.815 213.115 109.976 200.932C117.277 196.469 125.082 191.742 133.114 186.6C143.529 180.062 153.529 173.297 161.616 164.765C164.265 161.896 167.079 158.397 167.941 154.19C169.07 148.51 166.635 141.779 161.489 135.725C159.527 133.391 157.136 131.184 154.317 129.101C151.158 126.653 147.431 124.254 144.599 122.524L140.873 120.126C137.625 118.169 134.591 116.149 131.343 114.192C93.1751 89.8897 56.8752 62.8306 23.5514 33.6211C13.8859 25.6335 2.25794 15.3125 -10.5926 15.1194C-13.2761 15.0908 -15.8342 15.4906 -18.3923 15.8905C-20.2449 16.3164 -22.1602 16.5281 -24.0755 16.7398Z" fill="white"/>
</g>
<g id="topBar">
<g id="Frame 18">
<rect x="-8" y="-8" width="40" height="40" rx="12" fill="#3B74FF"/>
<g id="category-2">
<path id="Vector_4" d="M17 10H19C21 10 22 9 22 7V5C22 3 21 2 19 2H17C15 2 14 3 14 5V7C14 9 15 10 17 10Z" stroke="white" stroke-width="1.5" stroke-miterlimit="10" stroke-linecap="round" stroke-linejoin="round"/>
<path id="Vector_5" d="M5 22H7C9 22 10 21 10 19V17C10 15 9 14 7 14H5C3 14 2 15 2 17V19C2 21 3 22 5 22Z" stroke="white" stroke-width="1.5" stroke-miterlimit="10" stroke-linecap="round" stroke-linejoin="round"/>
<path id="Vector_6" d="M6 10C8.20914 10 10 8.20914 10 6C10 3.79086 8.20914 2 6 2C3.79086 2 2 3.79086 2 6C2 8.20914 3.79086 10 6 10Z" stroke="white" stroke-width="1.5" stroke-miterlimit="10" stroke-linecap="round" stroke-linejoin="round"/>
<path id="Vector_7" d="M18 22C20.2091 22 22 20.2091 22 18C22 15.7909 20.2091 14 18 14C15.7909 14 14 15.7909 14 18C14 20.2091 15.7909 22 18 22Z" stroke="white" stroke-width="1.5" stroke-miterlimit="10" stroke-linecap="round" stroke-linejoin="round"/>
</g>
</g>
</g>
</g>
</g>
</g>
</g>
<defs>
<clipPath id="clip0_0_1">
<rect x="-40" y="-46" width="360" height="800" rx="40" fill="white"/>
</clipPath>
<clipPath id="clip1_0_1">
<rect x="-40" y="-46" width="360" height="190" rx="36" fill="white"/>
</clipPath>
<clipPath id="clip2_0_1">
<rect width="292.993" height="216.43" fill="white" transform="translate(-68.1597 -21.4163) rotate(28.6848)"/>
</clipPath>
</defs>
</svg>
